<svg width="33" height="34" viewBox="0 0 33 34" fill="none" xmlns="http://www.w3.org/2000/svg">
<g filter="url(#filter0_d)">
<circle cx="16" cy="16" r="16" fill="white"/>
<circle cx="16" cy="16" r="15" stroke="#FDD54B" stroke-width="2"/>
</g>
<path d="M19.75 22.75V21.25C19.75 19.5931 18.4069 18.25 16.75 18.25H10.75C9.09315 18.25 7.75 19.5931 7.75 21.25V22.75" stroke="#FDD54B" stroke-width="2" stroke-linecap="round" stroke-linejoin="round"/>
<path fill-rule="evenodd" clip-rule="evenodd" d="M13.75 15.25C15.4069 15.25 16.75 13.9069 16.75 12.25C16.75 10.5931 15.4069 9.25 13.75 9.25C12.0931 9.25 10.75 10.5931 10.75 12.25C10.75 13.9069 12.0931 15.25 13.75 15.25Z" stroke="#FDD54B" stroke-width="2" stroke-linecap="round" stroke-linejoin="round"/>
<path d="M24.25 22.75V21.25C24.249 19.8828 23.3237 18.6893 22 18.3475" stroke="#FDD54B" stroke-width="2" stroke-linecap="round" stroke-linejoin="round"/>
<path d="M19 9.3475C20.3274 9.68738 21.2559 10.8835 21.2559 12.2538C21.2559 13.624 20.3274 14.8201 19 15.16" stroke="#FDD54B" stroke-width="2" stroke-linecap="round" stroke-linejoin="round"/>
<defs>
<filter id="filter0_d" x="0" y="0" width="33" height="34" filterUnits="userSpaceOnUse" color-interpolation-filters="sRGB">
<feFlood flood-opacity="0" result="BackgroundImageFix"/>
<feColorMatrix in="SourceAlpha" type="matrix" values="0 0 0 0 0 0 0 0 0 0 0 0 0 0 0 0 0 0 127 0"/>
<feOffset dx="1" dy="2"/>
<feColorMatrix type="matrix" values="0 0 0 0 0.992157 0 0 0 0 0.835294 0 0 0 0 0.294118 0 0 0 1 0"/>
<feBlend mode="normal" in2="BackgroundImageFix" result="effect1_dropShadow"/>
<feBlend mode="normal" in="SourceGraphic" in2="effect1_dropShadow" result="shape"/>
</filter>
</defs>
</svg>
