<svg width="33" height="34" viewBox="0 0 33 34" fill="none" xmlns="http://www.w3.org/2000/svg">
<g filter="url(#filter0_d)">
<circle cx="16" cy="16" r="16" fill="white"/>
<circle cx="16" cy="16" r="15" stroke="#7E5BEF" stroke-width="2"/>
</g>
<path fill-rule="evenodd" clip-rule="evenodd" d="M16 18.25C17.2426 18.25 18.25 17.2426 18.25 16C18.25 14.7574 17.2426 13.75 16 13.75C14.7574 13.75 13.75 14.7574 13.75 16C13.75 17.2426 14.7574 18.25 16 18.25Z" stroke="#7E5BEF" stroke-width="2" stroke-linecap="round" stroke-linejoin="round"/>
<path fill-rule="evenodd" clip-rule="evenodd" d="M21.55 18.25C21.3457 18.7128 21.4437 19.2534 21.7975 19.615L21.8425 19.66C22.1242 19.9414 22.2824 20.3231 22.2824 20.7212C22.2824 21.1194 22.1242 21.5011 21.8425 21.7825C21.5611 22.0642 21.1794 22.2224 20.7812 22.2224C20.3831 22.2224 20.0014 22.0642 19.72 21.7825L19.675 21.7375C19.3134 21.3837 18.7728 21.2857 18.31 21.49C17.8566 21.6843 17.562 22.1293 17.56 22.6225V22.75C17.56 23.5784 16.8884 24.25 16.06 24.25C15.2316 24.25 14.56 23.5784 14.56 22.75V22.6825C14.5481 22.1745 14.2269 21.7254 13.75 21.55C13.2872 21.3457 12.7466 21.4437 12.385 21.7975L12.34 21.8425C12.0586 22.1242 11.6769 22.2824 11.2787 22.2824C10.8806 22.2824 10.4989 22.1242 10.2175 21.8425C9.93583 21.5611 9.77757 21.1794 9.77757 20.7812C9.77757 20.3831 9.93583 20.0014 10.2175 19.72L10.2625 19.675C10.6162 19.3134 10.7143 18.7728 10.51 18.31C10.3157 17.8566 9.87073 17.562 9.3775 17.56H9.25C8.42157 17.56 7.75 16.8884 7.75 16.06C7.75 15.2316 8.42157 14.56 9.25 14.56H9.3175C9.8255 14.5481 10.2746 14.2269 10.45 13.75C10.6543 13.2872 10.5562 12.7466 10.2025 12.385L10.1575 12.34C9.87583 12.0586 9.71757 11.6769 9.71757 11.2787C9.71757 10.8806 9.87583 10.4989 10.1575 10.2175C10.4389 9.93583 10.8206 9.77757 11.2187 9.77757C11.6169 9.77757 11.9986 9.93583 12.28 10.2175L12.325 10.2625C12.6866 10.6162 13.2272 10.7143 13.69 10.51H13.75C14.2034 10.3157 14.498 9.87073 14.5 9.3775V9.25C14.5 8.42157 15.1716 7.75 16 7.75C16.8284 7.75 17.5 8.42157 17.5 9.25V9.3175C17.502 9.81073 17.7966 10.2557 18.25 10.45C18.7128 10.6543 19.2534 10.5562 19.615 10.2025L19.66 10.1575C19.9414 9.87583 20.3231 9.71757 20.7212 9.71757C21.1194 9.71757 21.5011 9.87583 21.7825 10.1575C22.0642 10.4389 22.2224 10.8206 22.2224 11.2187C22.2224 11.6169 22.0642 11.9986 21.7825 12.28L21.7375 12.325C21.3837 12.6866 21.2857 13.2272 21.49 13.69V13.75C21.6843 14.2034 22.1293 14.498 22.6225 14.5H22.75C23.5784 14.5 24.25 15.1716 24.25 16C24.25 16.8284 23.5784 17.5 22.75 17.5H22.6825C22.1893 17.502 21.7443 17.7966 21.55 18.25Z" stroke="#7E5BEF" stroke-width="2" stroke-linecap="round" stroke-linejoin="round"/>
<defs>
<filter id="filter0_d" x="0" y="0" width="33" height="34" filterUnits="userSpaceOnUse" color-interpolation-filters="sRGB">
<feFlood flood-opacity="0" result="BackgroundImageFix"/>
<feColorMatrix in="SourceAlpha" type="matrix" values="0 0 0 0 0 0 0 0 0 0 0 0 0 0 0 0 0 0 127 0"/>
<feOffset dx="1" dy="2"/>
<feColorMatrix type="matrix" values="0 0 0 0 0.494118 0 0 0 0 0.356863 0 0 0 0 0.937255 0 0 0 1 0"/>
<feBlend mode="normal" in2="BackgroundImageFix" result="effect1_dropShadow"/>
<feBlend mode="normal" in="SourceGraphic" in2="effect1_dropShadow" result="shape"/>
</filter>
</defs>
</svg>
