<svg width="384" height="83" viewBox="0 0 384 83" fill="none" xmlns="http://www.w3.org/2000/svg">
<path fill-rule="evenodd" clip-rule="evenodd" d="M72.9752 24.7298C74.1468 23.5583 74.1468 21.6588 72.9752 20.4872L53.3667 0.87868C52.1951 -0.292893 50.2956 -0.292894 49.124 0.878679L29.5155 20.4872C28.3439 21.6588 28.3439 23.5583 29.5155 24.7298L34.8694 30.0837C36.041 31.2553 37.9405 31.2553 39.1121 30.0837L49.124 20.0718C50.2956 18.9002 52.1951 18.9002 53.3667 20.0718L63.3786 30.0837C64.5502 31.2553 66.4497 31.2553 67.6213 30.0837L72.9752 24.7298Z" fill="#FE82A1"/>
<path fill-rule="evenodd" clip-rule="evenodd" d="M72.9752 50.3479C74.1468 49.1763 74.1468 47.2768 72.9752 46.1052L53.3667 26.4967C52.1951 25.3251 50.2956 25.3251 49.124 26.4967L29.5155 46.1052C28.3439 47.2768 28.3439 49.1763 29.5155 50.3479L34.8694 55.7018C36.041 56.8734 37.9405 56.8734 39.1121 55.7018L49.124 45.6898C50.2956 44.5183 52.1951 44.5183 53.3667 45.6898L63.3786 55.7018C64.5502 56.8734 66.4497 56.8734 67.6213 55.7018L72.9752 50.3479Z" fill="#396AFF"/>
<path fill-rule="evenodd" clip-rule="evenodd" d="M72.9752 76.711C74.1468 75.5395 74.1468 73.64 72.9752 72.4684L53.3667 52.8599C52.1951 51.6883 50.2956 51.6883 49.124 52.8599L29.5155 72.4684C28.3439 73.64 28.3439 75.5395 29.5155 76.711L34.8694 82.0649C36.041 83.2365 37.9405 83.2365 39.1121 82.0649L49.124 72.053C50.2956 70.8814 52.1951 70.8814 53.3667 72.053L63.3786 82.0649C64.5502 83.2365 66.4497 83.2365 67.6213 82.0649L72.9752 76.711Z" fill="#16DBCC"/>
<path fill-rule="evenodd" clip-rule="evenodd" d="M44.3383 24.7298C45.5099 23.5583 45.5099 21.6588 44.3383 20.4872L24.7298 0.87868C23.5583 -0.292893 21.6588 -0.292894 20.4872 0.878679L0.878678 20.4872C-0.292894 21.6588 -0.292892 23.5583 0.878681 24.7298L6.23259 30.0837C7.40417 31.2553 9.30366 31.2553 10.4752 30.0837L20.4872 20.0718C21.6588 18.9002 23.5583 18.9002 24.7298 20.0718L34.7418 30.0837C35.9134 31.2553 37.8129 31.2553 38.9844 30.0837L44.3383 24.7298Z" fill="#FE82A1"/>
<path fill-rule="evenodd" clip-rule="evenodd" d="M44.3383 50.3479C45.5099 49.1763 45.5099 47.2768 44.3383 46.1052L24.7298 26.4967C23.5583 25.3251 21.6588 25.3251 20.4872 26.4967L0.878678 46.1052C-0.292894 47.2768 -0.292892 49.1763 0.878681 50.3479L6.23259 55.7018C7.40417 56.8734 9.30366 56.8734 10.4752 55.7018L20.4872 45.6898C21.6588 44.5183 23.5583 44.5183 24.7298 45.6898L34.7418 55.7018C35.9134 56.8734 37.8129 56.8734 38.9844 55.7018L44.3383 50.3479Z" fill="#396AFF"/>
<path fill-rule="evenodd" clip-rule="evenodd" d="M44.3383 76.711C45.5099 75.5395 45.5099 73.64 44.3383 72.4684L24.7298 52.8599C23.5583 51.6883 21.6588 51.6883 20.4872 52.8599L0.878678 72.4684C-0.292895 73.64 -0.292892 75.5395 0.878681 76.711L6.23259 82.0649C7.40417 83.2365 9.30366 83.2365 10.4752 82.0649L20.4872 72.053C21.6588 70.8814 23.5583 70.8814 24.7298 72.053L34.7418 82.0649C35.9134 83.2365 37.8129 83.2365 38.9844 82.0649L44.3383 76.711Z" fill="#16DBCC"/>
<path d="M116.477 44.86L105.437 22H95.9573V64H105.857V41.8L112.397 54.64H120.557L127.157 41.8V64H137.057V22H127.577L116.477 44.86ZM153.449 64V32.56H143.369V64H153.449ZM142.829 24.52C142.829 27.7 145.049 29.74 148.409 29.74C151.769 29.74 153.989 27.7 153.989 24.52C153.989 21.34 151.769 19.3 148.409 19.3C145.049 19.3 142.829 21.34 142.829 24.52ZM169.22 64V45.4C169.22 41.8 171.38 40.6 173.96 40.6C177.02 40.6 178.52 42.4 178.52 45.28V64H188.6V43.72C188.6 36.46 184.76 31.84 177.56 31.84C173.54 31.84 170.42 33.34 168.8 36.22V32.56H159.14V64H169.22ZM204.107 64V32.56H194.027V64H204.107ZM193.487 24.52C193.487 27.7 195.707 29.74 199.067 29.74C202.427 29.74 204.647 27.7 204.647 24.52C204.647 21.34 202.427 19.3 199.067 19.3C195.707 19.3 193.487 21.34 193.487 24.52ZM243.578 40.6C246.638 40.6 247.958 42.4 247.958 45.28V64H258.038V43.72C258.038 36.46 254.198 31.84 246.998 31.84C242.378 31.84 239.378 33.52 237.038 36.28C235.238 33.46 232.178 31.84 227.918 31.84C223.898 31.84 220.658 33.52 219.458 36.22V32.56H209.798V64H219.878V45.4C219.878 41.92 221.918 40.6 224.498 40.6C227.558 40.6 228.878 42.4 228.878 45.28V64H238.958V45.4C238.958 41.92 241.118 40.6 243.578 40.6ZM292.535 64V44.44C292.535 36.7 287.315 31.84 278.375 31.84C270.995 31.84 265.655 35.62 264.335 41.92H273.515C274.355 40.36 275.975 39.64 278.075 39.64C280.895 39.64 282.455 41.38 282.455 43.72V47.38C280.895 46.12 278.015 45.04 274.235 45.04C266.915 45.04 262.055 48.34 262.055 54.82C262.055 60.58 266.375 64.72 273.575 64.72C277.655 64.72 281.075 63.46 282.875 61.36V64H292.535ZM276.935 58.3C273.755 58.3 271.475 57.04 271.475 54.64C271.475 52.18 273.635 50.98 277.055 50.98C280.175 50.98 282.455 52.54 282.455 54.64C282.455 56.74 279.995 58.3 276.935 58.3ZM297.663 74.44H307.743V61.42C309.063 62.98 312.123 64.72 315.903 64.72C324.783 64.72 329.223 58 329.223 50.86V45.7C329.223 38.56 324.783 31.84 315.903 31.84C311.583 31.84 308.223 34.12 307.263 35.86V32.56H297.663V74.44ZM307.743 46.06C307.743 42.1 310.383 40.12 313.383 40.12C317.343 40.12 319.143 42.64 319.143 46.24V50.32C319.143 54.04 317.343 56.44 313.383 56.44C310.383 56.44 307.743 54.46 307.743 50.5V46.06ZM359.884 53.74C359.884 49.42 357.244 46.72 352.984 45.7L343.804 43.48C342.424 43.18 341.824 42.58 341.824 41.38C341.824 39.64 343.024 38.8 345.604 38.8C348.424 38.8 349.564 40.06 349.564 41.98V42.52H358.264V41.98C358.264 35.68 352.924 31.84 345.484 31.84C337.864 31.84 332.464 35.62 332.464 42.4C332.464 46.84 334.984 49.78 339.844 50.86L348.544 52.84C350.104 53.2 350.644 53.86 350.644 55C350.644 56.8 348.604 57.76 345.904 57.76C342.904 57.76 340.864 56.62 340.864 54.4V53.98H331.984V54.64C331.984 61 337.504 64.72 345.844 64.72C354.244 64.72 359.884 60.04 359.884 53.74Z" fill="#333C6A"/>
</svg>
