<svg width="24" height="27" viewBox="0 0 24 27" fill="none" xmlns="http://www.w3.org/2000/svg">
<path fill-rule="evenodd" clip-rule="evenodd" d="M22.9686 8.64446C23.8449 7.76814 23.8449 6.34736 22.9686 5.47104L18.7895 1.29192C17.6179 0.120345 15.7184 0.120346 14.5468 1.29192L10.3677 5.47104C9.49137 6.34736 9.49137 7.76814 10.3677 8.64446C11.244 9.52077 12.6648 9.52077 13.5411 8.64446L14.5468 7.63874C15.7184 6.46717 17.6179 6.46717 18.7895 7.63874L19.7952 8.64445C20.6715 9.52077 22.0923 9.52077 22.9686 8.64446Z" fill="#FE82A1"/>
<path fill-rule="evenodd" clip-rule="evenodd" d="M22.9683 17.1158C23.8446 16.2395 23.8446 14.8187 22.9683 13.9424L18.7892 9.76331C17.6176 8.59173 15.7181 8.59174 14.5466 9.76331L10.3674 13.9424C9.49113 14.8187 9.49113 16.2395 10.3674 17.1158C11.2438 17.9922 12.6645 17.9922 13.5409 17.1158L14.5466 16.1101C15.7181 14.9386 17.6176 14.9386 18.7892 16.1101L19.7949 17.1158C20.6712 17.9922 22.092 17.9922 22.9683 17.1158Z" fill="#396AFF"/>
<path fill-rule="evenodd" clip-rule="evenodd" d="M22.9683 25.8337C23.8446 24.9574 23.8446 23.5366 22.9683 22.6603L18.7892 18.4812C17.6176 17.3096 15.7181 17.3096 14.5466 18.4812L10.3674 22.6603C9.49113 23.5366 9.49113 24.9574 10.3674 25.8337C11.2438 26.71 12.6645 26.71 13.5409 25.8337L14.5466 24.828C15.7181 23.6564 17.6176 23.6564 18.7892 24.828L19.7949 25.8337C20.6712 26.71 22.092 26.71 22.9683 25.8337Z" fill="#16DBCC"/>
<path fill-rule="evenodd" clip-rule="evenodd" d="M13.4991 8.64446C14.3754 7.76814 14.3754 6.34736 13.4991 5.47104L9.31997 1.29192C8.1484 0.120345 6.2489 0.120346 5.07733 1.29192L0.898202 5.47104C0.0218885 6.34736 0.0218882 7.76814 0.898202 8.64446C1.77452 9.52077 3.1953 9.52077 4.07161 8.64446L5.07733 7.63874C6.2489 6.46717 8.1484 6.46717 9.31997 7.63874L10.3257 8.64445C11.202 9.52077 12.6228 9.52077 13.4991 8.64446Z" fill="#FE82A1"/>
<path fill-rule="evenodd" clip-rule="evenodd" d="M13.4988 17.1158C14.3752 16.2395 14.3752 14.8187 13.4988 13.9424L9.31972 9.76331C8.14815 8.59173 6.24866 8.59174 5.07708 9.76331L0.897958 13.9424C0.0216442 14.8187 0.0216442 16.2395 0.897958 17.1158C1.77427 17.9922 3.19506 17.9922 4.07137 17.1158L5.07708 16.1101C6.24866 14.9386 8.14815 14.9386 9.31972 16.1101L10.3254 17.1158C11.2017 17.9922 12.6225 17.9922 13.4988 17.1158Z" fill="#396AFF"/>
<path fill-rule="evenodd" clip-rule="evenodd" d="M13.4989 25.8337C14.3752 24.9574 14.3752 23.5366 13.4988 22.6603L9.31972 18.4812C8.14815 17.3096 6.24866 17.3096 5.07708 18.4812L0.897958 22.6603C0.0216443 23.5366 0.021644 24.9574 0.897958 25.8337C1.77427 26.71 3.19506 26.71 4.07137 25.8337L5.07708 24.828C6.24866 23.6564 8.14815 23.6564 9.31972 24.828L10.3254 25.8337C11.2018 26.71 12.6225 26.71 13.4989 25.8337Z" fill="#16DBCC"/>
</svg>
